<svg xmlns="http://www.w3.org/2000/svg" xmlns:xlink="http://www.w3.org/1999/xlink" width="157" height="152" version="1.1"><rect id="backgroundrect" width="100%" height="100%" x="0" y="0" fill="none" stroke="none"/>
    <!-- Generator: Sketch 41.2 (35397) - http://www.bohemiancoding.com/sketch -->
    <title>Group</title>
    <desc>Created with Sketch.</desc>
    <defs/>
    
<g class="currentLayer"><title>Layer 1</title><g id="Page-1" stroke="none" stroke-width="1" fill="#2196f3" fill-rule="evenodd" class="selected" fill-opacity="1">
        <g id="Artboard-2" fill="#2196f3" fill-opacity="1">
            <g id="Group-4" fill="#2196f3" fill-opacity="1">
                <g id="Group-2" fill="#2196f3" fill-opacity="1">
                    <g id="Group" fill="#2196f3" fill-opacity="1">
                        <path d="M95.40084730000001,114.03930700000001 C91.20985860000002,111.23598500000003 55.31872580000004,86.85838130000002 45.644441099999995,69.7971389 L45.11413170000003,68.85756400000002 L44.02262110000004,68.81648970000003 C35.692130099999986,68.47762660000001 29.215147600000023,73.28332109999997 26.440033500000027,75.76831700000002 C25.307333800000038,74.62337059999999 24.154039600000033,73.44761840000001 22.97500230000003,72.2359262 L21.569425000000024,70.79832520000002 L20.174144999999953,72.24619469999999 C14.711443499999973,77.89904690000003 12.29673379999997,83.1565589 12.986650899999972,87.8955077 C13.547852000000034,91.74109010000001 16.183952999999974,95.0886466 20.61177889999999,97.58904530000001 C21.409817299999986,98.04086269999999 30.651616699999977,104.30983000000003 40.69660309999995,112.30905200000001 C38.96151320000001,114.07524699999999 32.65443559999994,118.14673800000003 30.368441800000028,119.76917400000002 C27.79927299999997,121.58671200000003 17.095261400000027,131.27511500000003 17.095261400000027,131.27511500000003 L24.009877899999992,132.90268500000002 L26.403993000000014,137.56462 C26.403993000000014,137.56462 29.68882199999996,129.54485999999997 33.292866300000014,125.586323 C36.896910599999956,121.62778600000001 43.19369089999998,118.46506399999998 43.19369089999998,118.46506399999998 C43.19369089999998,118.46506399999998 39.79044339999996,123.31183299999998 37.34999049999999,128.014842 C34.91468629999997,132.717851 34.291701500000045,140.871102 34.291701500000045,140.871102 L38.518730600000026,139.53618700000004 L41.432857900000045,145.87189899999998 C41.432857900000045,145.87189899999998 42.210301699999945,136.91769899999997 44.00202660000002,131.085147 C45.44879300000002,126.366735 48.99620230000005,121.894769 50.31425279999996,120.32881099999997 C63.051975200000015,131.51129300000002 76.361196,145.014473 79.02304019999997,147.74077999999997 C80.62941419999999,149.57885599999997 82.7094626,150.934308 85.4176445,151.53502000000003 C86.38558790000002,151.74552600000004 87.3689771,151.848212 88.32662319999997,151.848212 C93.83566229999997,151.848212 99.06667520000002,148.42364099999998 102.43388199999998,142.42679099999998 C106.36743899999999,135.449292 107.47439600000001,124.71862799999997 100.64730600000001,117.66925000000003 C98.77835170000003,115.72335399999997 97.00722129999997,114.619482 95.40084730000001,114.03930700000001 zM41.39166880000005,107.89356299999997 C32.17561260000002,100.66448400000002 23.76789199999996,94.90894639999999 22.542516999999975,94.21581739999999 C19.149566700000037,92.30072760000002 17.23427449999997,89.98516330000001 16.84812690000001,87.33587009999997 C16.395047100000056,84.224491 18.001421100000016,80.55860869999998 21.626060000000052,76.42037170000003 C30.641319400000043,85.62101760000002 38.348825600000055,92.9219766 44.89274039999998,98.7288575 C41.93227539999998,103.51914899999997 41.41226329999995,106.09142800000001 41.39166880000005,107.89356299999997 zM47.116950599999996,95.48912110000003 C41.92197820000001,90.88366389999999 35.97530500000005,85.30269169999997 29.19970169999999,78.53569879999998 C31.50114140000005,76.5281918 36.56224940000004,72.836638 42.8281379,72.68774359999998 C46.10266960000001,78.04280699999998 51.52933059999998,83.92156799999998 57.64590869999995,89.6103602 C54.464052400000014,89.9338204 50.48930640000003,91.3200784 47.116950599999996,95.48912110000003 zM51.076250699999946,115.83630800000003 C51.405763399999955,113.351313 52.178058599999986,109.92674199999999 53.91829710000002,106.39948500000003 C65.37915810000004,115.70795099999998 71.88703240000001,119.111985 74.73422740000001,120.30827399999998 C74.29144480000002,123.58395100000001 73.54489280000001,131.13135499999999 74.8423487,138.03184 C68.68973019999999,131.96311000000003 59.643579000000045,123.24508700000001 51.076250699999946,115.83630800000003 zM99.056378,140.542507 C96.631371,144.85017600000003 92.00274839999997,149.01408400000003 86.27231790000002,147.75104899999997 C76.43327690000001,145.584379 77.56082789999999,126.52076399999999 78.82739200000003,119.358431 L79.1466074,117.54602699999998 L77.3394366,117.12501500000002 C77.26220710000001,117.10447799999997 71.1404804,115.38962500000002 56.013791500000025,103.07246600000002 C58.85583780000002,99.77625239999998 63.407231000000024,98.30271149999999 66.86711349999996,97.65065679999998 C75.40869859999998,104.720573 83.91424319999999,110.830377 88.9959457,114.36790200000002 C88.8414866,114.44491600000003 88.69732490000001,114.516796 88.56860899999998,114.59894500000001 C82.7094626,117.91569500000003 80.26386109999999,127.51168200000001 81.53557390000003,132.10686999999996 C83.02867800000001,137.51327700000002 86.64816819999999,140.984056 90.4581579,140.912176 C92.0851265,140.85056399999996 96.04957530000001,139.93666099999996 97.4963416,132.717851 L97.7228816,131.59344099999998 L96.8527623,130.859238 C91.35402039999997,126.19216900000004 88.3781095,123.43505600000003 86.95708630000001,122.05393200000003 C87.863246,120.29800599999999 89.0577293,118.773122 90.49419840000002,117.961904 C92.6720709,116.73994299999998 95.14856420000001,117.54089199999999 97.87219199999998,120.35961700000001 C103.30400199999997,125.99706600000002 102.294869,134.776701 99.056378,140.542507 zM93.41347430000002,133.056714 C92.7338545,135.51603799999998 91.59600620000003,136.994713 90.30369889999997,137.03065300000003 L90.24191530000002,137.03065300000003 C88.62524400000001,137.03065300000003 86.35469599999999,134.97180400000002 85.2786314,131.080013 C84.93367290000003,129.837515 85.03149689999998,127.984036 85.49487399999998,126.05354399999999 C87.1063967,127.55788999999999 89.62407910000002,129.827246 93.41347430000002,133.056714 z" id="Shape" fill="#2196f3" fill-opacity="1"/>
                        <path d="M30.87121400000001,42.0639056 L24.713446800000042,61.7333668 C24.713446800000042,61.7333668 49.879973500000006,64.1721541 70.83491690000005,70.68756680000001 C91.80015760000003,77.2183824 113.88265200000001,89.49446749999998 113.88265200000001,89.49446749999998 L120.143392,69.4758746 C120.143392,69.4758746 101.33542899999998,50.57142249999998 78.93371939999997,43.599058000000014 C56.542306800000006,36.631827799999996 30.87121400000001,42.0639056 30.87121400000001,42.0639056 z" id="Shape" fill="#2196f3" fill-opacity="1"/>
                        <path d="M157.05395399999998,69.44639310000002 L149.72744699999998,61.78089970000002 L150.44825600000001,59.455066699999975 C150.44825600000001,59.455066699999975 156.90464399999996,47.615396299999986 140.64525500000002,49.80260340000001 C139.800879,49.96690060000003 139.296313,50.23901799999999 139.01313800000003,50.57788099999999 L90.6314175,0 L0,19.9467128 L24.924540800000045,42.1473785 L26.263185900000053,37.8705157 C26.263185900000053,37.8705157 54.89474370000005,31.817188999999985 79.86047359999998,39.58536830000003 C104.83135199999998,47.36381610000001 125.80689000000001,68.44007249999999 125.80689000000001,68.44007249999999 L123.474559,75.90019440000003 L142.194995,72.29592350000001 C139.07492200000002,82.24617560000002 135.491472,93.71104300000002 134.37421800000004,97.25883670000002 L129.04538100000002,95.59532710000002 L125.173608,107.94842599999998 L133.80272000000002,105.268328 L140.14583800000003,112.61549500000001 L144.007314,100.26239599999997 L138.245992,98.46026030000002 L146.710347,71.42309439999997 L157.05395399999998,69.44639310000002 zM146.32420000000002,66.67901139999998 C145.68061999999998,68.74299559999997 143.47700499999996,69.89307630000002 141.40725299999997,69.25129019999997 C139.33750199999997,68.6043697 138.179059,66.41202829999997 138.82263899999998,64.3480442 C139.476515,62.28406000000001 141.68013099999996,61.1339792 143.744734,61.77576540000001 C145.80933600000003,62.4175515 146.967779,64.6201615 146.32420000000002,66.67901139999998 zM142.66866900000002,54.397792100000004 C144.71267699999999,53.791945999999996 148.182857,53.16556270000001 147.26125100000002,56.11264460000001 C147.16857600000003,56.40016479999997 146.916293,57.23191959999997 146.524996,58.438477499999976 L142.66866900000002,54.397792100000004 z" id="Shape" fill="#2196f3" fill-opacity="1"/>
                    </g>
                </g>
            </g>
        </g>
    </g></g></svg>