<?xml version="1.0" encoding="UTF-8"?>
<svg width="157px" height="152px" viewBox="0 0 157 152" version="1.1" xmlns="http://www.w3.org/2000/svg" xmlns:xlink="http://www.w3.org/1999/xlink">
    <!-- Generator: Sketch 41.2 (35397) - http://www.bohemiancoding.com/sketch -->
    <title>Group</title>
    <desc>Created with Sketch.</desc>
    <defs></defs>
    <g id="Page-1" stroke="none" stroke-width="1" fill="none" fill-rule="evenodd">
        <g id="Artboard-2" transform="translate(-583.000000, -444.000000)" fill="#FFFFFF">
            <g id="Group-4" transform="translate(583.000000, 444.000000)">
                <g id="Group-2">
                    <g id="Group">
                        <path d="M95.4008473,114.039307 C91.2098586,111.235985 55.3187258,86.8583813 45.6444411,69.7971389 L45.1141317,68.857564 L44.0226211,68.8164897 C35.6921301,68.4776266 29.2151476,73.2833211 26.4400335,75.768317 C25.3073338,74.6233706 24.1540396,73.4476184 22.9750023,72.2359262 L21.569425,70.7983252 L20.174145,72.2461947 C14.7114435,77.8990469 12.2967338,83.1565589 12.9866509,87.8955077 C13.547852,91.7410901 16.183953,95.0886466 20.6117789,97.5890453 C21.4098173,98.0408627 30.6516167,104.30983 40.6966031,112.309052 C38.9615132,114.075247 32.6544356,118.146738 30.3684418,119.769174 C27.799273,121.586712 17.0952614,131.275115 17.0952614,131.275115 L24.0098779,132.902685 L26.403993,137.56462 C26.403993,137.56462 29.688822,129.54486 33.2928663,125.586323 C36.8969106,121.627786 43.1936909,118.465064 43.1936909,118.465064 C43.1936909,118.465064 39.7904434,123.311833 37.3499905,128.014842 C34.9146863,132.717851 34.2917015,140.871102 34.2917015,140.871102 L38.5187306,139.536187 L41.4328579,145.871899 C41.4328579,145.871899 42.2103017,136.917699 44.0020266,131.085147 C45.448793,126.366735 48.9962023,121.894769 50.3142528,120.328811 C63.0519752,131.511293 76.361196,145.014473 79.0230402,147.74078 C80.6294142,149.578856 82.7094626,150.934308 85.4176445,151.53502 C86.3855879,151.745526 87.3689771,151.848212 88.3266232,151.848212 C93.8356623,151.848212 99.0666752,148.423641 102.433882,142.426791 C106.367439,135.449292 107.474396,124.718628 100.647306,117.66925 C98.7783517,115.723354 97.0072213,114.619482 95.4008473,114.039307 Z M41.3916688,107.893563 C32.1756126,100.664484 23.767892,94.9089464 22.542517,94.2158174 C19.1495667,92.3007276 17.2342745,89.9851633 16.8481269,87.3358701 C16.3950471,84.224491 18.0014211,80.5586087 21.62606,76.4203717 C30.6413194,85.6210176 38.3488256,92.9219766 44.8927404,98.7288575 C41.9322754,103.519149 41.4122633,106.091428 41.3916688,107.893563 Z M47.1169506,95.4891211 C41.9219782,90.8836639 35.975305,85.3026917 29.1997017,78.5356988 C31.5011414,76.5281918 36.5622494,72.836638 42.8281379,72.6877436 C46.1026696,78.042807 51.5293306,83.921568 57.6459087,89.6103602 C54.4640524,89.9338204 50.4893064,91.3200784 47.1169506,95.4891211 Z M51.0762507,115.836308 C51.4057634,113.351313 52.1780586,109.926742 53.9182971,106.399485 C65.3791581,115.707951 71.8870324,119.111985 74.7342274,120.308274 C74.2914448,123.583951 73.5448928,131.131355 74.8423487,138.03184 C68.6897302,131.96311 59.643579,123.245087 51.0762507,115.836308 Z M99.056378,140.542507 C96.631371,144.850176 92.0027484,149.014084 86.2723179,147.751049 C76.4332769,145.584379 77.5608279,126.520764 78.827392,119.358431 L79.1466074,117.546027 L77.3394366,117.125015 C77.2622071,117.104478 71.1404804,115.389625 56.0137915,103.072466 C58.8558378,99.7762524 63.407231,98.3027115 66.8671135,97.6506568 C75.4086986,104.720573 83.9142432,110.830377 88.9959457,114.367902 C88.8414866,114.444916 88.6973249,114.516796 88.568609,114.598945 C82.7094626,117.915695 80.2638611,127.511682 81.5355739,132.10687 C83.028678,137.513277 86.6481682,140.984056 90.4581579,140.912176 C92.0851265,140.850564 96.0495753,139.936661 97.4963416,132.717851 L97.7228816,131.593441 L96.8527623,130.859238 C91.3540204,126.192169 88.3781095,123.435056 86.9570863,122.053932 C87.863246,120.298006 89.0577293,118.773122 90.4941984,117.961904 C92.6720709,116.739943 95.1485642,117.540892 97.872192,120.359617 C103.304002,125.997066 102.294869,134.776701 99.056378,140.542507 Z M93.4134743,133.056714 C92.7338545,135.516038 91.5960062,136.994713 90.3036989,137.030653 L90.2419153,137.030653 C88.625244,137.030653 86.354696,134.971804 85.2786314,131.080013 C84.9336729,129.837515 85.0314969,127.984036 85.494874,126.053544 C87.1063967,127.55789 89.6240791,129.827246 93.4134743,133.056714 Z" id="Shape"></path>
                        <path d="M30.871214,42.0639056 L24.7134468,61.7333668 C24.7134468,61.7333668 49.8799735,64.1721541 70.8349169,70.6875668 C91.8001576,77.2183824 113.882652,89.4944675 113.882652,89.4944675 L120.143392,69.4758746 C120.143392,69.4758746 101.335429,50.5714225 78.9337194,43.599058 C56.5423068,36.6318278 30.871214,42.0639056 30.871214,42.0639056 Z" id="Shape"></path>
                        <path d="M157.053954,69.4463931 L149.727447,61.7808997 L150.448256,59.4550667 C150.448256,59.4550667 156.904644,47.6153963 140.645255,49.8026034 C139.800879,49.9669006 139.296313,50.239018 139.013138,50.577881 L90.6314175,0 L0,19.9467128 L24.9245408,42.1473785 L26.2631859,37.8705157 C26.2631859,37.8705157 54.8947437,31.817189 79.8604736,39.5853683 C104.831352,47.3638161 125.80689,68.4400725 125.80689,68.4400725 L123.474559,75.9001944 L142.194995,72.2959235 C139.074922,82.2461756 135.491472,93.711043 134.374218,97.2588367 L129.045381,95.5953271 L125.173608,107.948426 L133.80272,105.268328 L140.145838,112.615495 L144.007314,100.262396 L138.245992,98.4602603 L146.710347,71.4230944 L157.053954,69.4463931 Z M146.3242,66.6790114 C145.68062,68.7429956 143.477005,69.8930763 141.407253,69.2512902 C139.337502,68.6043697 138.179059,66.4120283 138.822639,64.3480442 C139.476515,62.28406 141.680131,61.1339792 143.744734,61.7757654 C145.809336,62.4175515 146.967779,64.6201615 146.3242,66.6790114 Z M142.668669,54.3977921 C144.712677,53.791946 148.182857,53.1655627 147.261251,56.1126446 C147.168576,56.4001648 146.916293,57.2319196 146.524996,58.4384775 L142.668669,54.3977921 Z" id="Shape"></path>
                    </g>
                </g>
            </g>
        </g>
    </g>
</svg>